<svg width="19" height="16" viewBox="0 0 19 16" fill="none" xmlns="http://www.w3.org/2000/svg">
<path fill-rule="evenodd" clip-rule="evenodd" d="M1.26572 6.97257C6.20974 4.80683 9.50854 3.37979 11.1538 2.69145C15.8639 0.718774 16.8411 0.383 17.4758 0.366211C17.6177 0.366211 17.9267 0.399788 18.1355 0.567676C18.3109 0.71038 18.3527 0.895056 18.3777 1.02937C18.4028 1.16368 18.4278 1.46587 18.4028 1.70091C18.1439 4.3955 17.0415 10.9347 16.4819 13.9567C16.2481 15.2326 15.7721 15.6607 15.3211 15.7027C14.3356 15.795 13.5924 15.0479 12.632 14.4184C11.1371 13.4362 10.2936 12.8234 8.84878 11.8665C7.1785 10.7584 8.25583 10.1456 9.21624 9.15511C9.46678 8.89488 13.8012 4.92435 13.8847 4.57179C13.893 4.52981 13.9014 4.36193 13.8095 4.26959C13.7176 4.17725 13.5673 4.21083 13.4587 4.23601C13.3084 4.26959 10.9283 5.85612 6.30996 8.98722C5.6335 9.4573 5.02385 9.68395 4.47265 9.66716C3.87135 9.65037 2.70216 9.32299 1.83362 9.03759C0.772991 8.69342 -0.070501 8.50874 0.00466142 7.92114C0.0464183 7.61055 0.463989 7.29995 1.26572 6.98097V6.97257Z" fill="black"/>
</svg>
