<svg width="18" height="16" viewBox="0 0 18 16" fill="none" xmlns="http://www.w3.org/2000/svg">
<path d="M0.695759 5.49954C2.56417 6.6653 4.3687 7.79114 6.16525 8.90899C6.90782 9.3721 7.65839 9.82723 8.39298 10.3063C8.81616 10.5858 9.19144 10.5778 9.62261 10.3063C12.0739 8.76527 14.5412 7.23221 17.0004 5.69916C17.0883 5.64326 17.1841 5.59536 17.3118 5.51551C17.3118 5.6752 17.3278 5.79497 17.3278 5.91474C17.3278 8.42991 17.3278 10.9451 17.3278 13.4523C17.3278 14.5142 16.729 15.1051 15.659 15.1051C11.2275 15.1051 6.79604 15.0971 2.37253 15.1051C1.37445 15.1051 0.671797 14.4264 0.687767 13.4203C0.719705 10.9291 0.695759 8.42991 0.695759 5.93071C0.695759 5.79497 0.695759 5.66722 0.695759 5.47559V5.49954Z" fill="black"/>
<path d="M17.1769 5.42062H0.864258C0.968058 5.34876 1.03993 5.29286 1.11179 5.25294C3.67487 3.64802 6.24593 2.05109 8.80901 0.446172C8.93677 0.366325 9.04056 0.326402 9.19227 0.422218C11.7793 2.04311 14.3663 3.65601 16.9613 5.26891C17.0172 5.30085 17.0731 5.34876 17.1849 5.42062H17.1769Z" fill="black"/>
</svg>
