<svg width="20" height="20" viewBox="0 0 20 20" fill="none" xmlns="http://www.w3.org/2000/svg">
<path d="M9.45849 0.832031C9.85123 0.832031 10.2358 0.832031 10.6285 0.832031C10.8495 0.856578 11.0704 0.881124 11.2913 0.913852C13.3859 1.23295 15.1941 2.10844 16.6587 3.66304C17.9597 5.03763 18.8024 6.64132 19.1215 8.50684C19.1788 8.8423 19.2116 9.17777 19.2606 9.51323V10.6833C19.2525 10.7324 19.2361 10.7896 19.2279 10.8387C19.1706 11.6488 18.9988 12.4342 18.7288 13.2034C16.8306 18.4726 10.6367 20.8863 5.67019 18.3008C5.58836 18.2599 5.45745 18.2435 5.36745 18.2681C3.93558 18.6363 2.50371 19.0126 1.07185 19.389C0.92457 19.4299 0.769111 19.4627 0.605469 19.5036C0.630015 19.4218 0.646379 19.3563 0.662743 19.299C1.07185 17.8181 1.48095 16.3371 1.88188 14.8561C1.90642 14.7743 1.89006 14.6598 1.84915 14.5861C0.801839 12.6633 0.458191 10.6342 0.810021 8.49047C1.46459 4.53852 4.62288 1.65024 8.403 0.979309C8.75483 0.913852 9.10666 0.881124 9.46668 0.832031H9.45849ZM2.84736 17.2617C2.93737 17.2453 2.97828 17.2289 3.02737 17.2208C3.87831 16.9999 4.72924 16.7789 5.58018 16.558C5.70291 16.5253 5.8011 16.5335 5.91565 16.6071C7.62571 17.6299 9.45849 17.9899 11.4222 17.6135C15.6278 16.8117 18.3442 12.8433 17.5751 8.63775C16.8551 4.71034 13.0668 1.92843 9.09848 2.41118C6.90568 2.68118 5.12198 3.6794 3.80467 5.45491C2.52826 7.17315 2.02097 9.11231 2.34007 11.2478C2.50371 12.3524 2.91282 13.3588 3.52648 14.2916C3.60012 14.3979 3.6083 14.4879 3.57557 14.6107C3.42829 15.1098 3.29738 15.6171 3.15828 16.1162C3.05191 16.4844 2.95373 16.8608 2.84736 17.2617Z" fill="black"/>
<path d="M12.4611 14.4788C11.8065 14.5033 11.2665 14.2579 10.7101 14.0697C9.13919 13.5297 7.93642 12.5069 6.89729 11.2469C6.39819 10.6414 5.90726 10.0359 5.57998 9.31588C5.23633 8.55495 5.10541 7.77765 5.46543 6.99217C5.62089 6.6567 5.85817 6.35396 6.07908 6.05941C6.20181 5.88758 6.40637 5.80576 6.6191 5.79758C6.84002 5.7894 7.06093 5.76485 7.27367 5.81395C7.3964 5.83849 7.52731 5.96122 7.59277 6.07577C7.7155 6.28851 7.79732 6.52579 7.89551 6.75489C8.05915 7.13126 8.20643 7.51582 8.37825 7.8922C8.46007 8.08039 8.46007 8.26039 8.33734 8.42403C8.18188 8.63677 8.0346 8.8495 7.86278 9.04587C7.60095 9.35679 7.59277 9.38952 7.79732 9.72499C8.54189 10.9359 9.55647 11.8196 10.8738 12.3514C11.152 12.466 11.2502 12.4414 11.4465 12.2123C11.6675 11.9423 11.8966 11.6723 12.1093 11.386C12.2238 11.2305 12.3629 11.1896 12.5348 11.2387C12.6002 11.255 12.6657 11.2796 12.7229 11.3041C13.3039 11.5578 13.8766 11.8196 14.4575 12.0651C14.6294 12.1387 14.7112 12.2614 14.703 12.4496C14.6866 13.1451 14.4494 13.726 13.8112 14.0942C13.3775 14.3479 12.9275 14.5197 12.4611 14.487V14.4788Z" fill="black"/>
</svg>
