<svg width="18" height="19" viewBox="0 0 18 19" fill="none" xmlns="http://www.w3.org/2000/svg">
<path d="M11.4802 18.0429H6.26821C6.18639 18.0347 6.11275 18.0265 6.03093 18.0183C5.50728 17.961 4.97544 17.9365 4.45997 17.8301C2.57809 17.4374 1.34259 16.3328 0.827118 14.4591C0.573473 13.5182 0.548928 12.5527 0.540746 11.5872C0.532564 10.0735 0.540746 8.55163 0.540746 7.03794C0.540746 6.187 0.573474 5.34425 0.745298 4.50967C0.982579 3.29872 1.56351 2.30869 2.57809 1.58048C3.44539 0.958645 4.43542 0.688636 5.47455 0.66409C7.30734 0.614997 9.14013 0.598633 10.9811 0.598633C11.963 0.598633 12.9448 0.598633 13.9185 0.754093C15.9476 1.08956 17.314 2.36596 17.7641 4.37058C17.9277 5.07424 17.9522 5.78608 17.9686 6.50611C17.9686 6.72702 17.985 6.94794 18.0013 7.16886V11.5299C17.9931 11.7345 17.9768 11.939 17.9686 12.1354C17.9522 12.8472 17.9277 13.5673 17.7559 14.2627C17.2977 16.1282 16.1685 17.3228 14.2948 17.781C13.583 17.9529 12.8548 17.9856 12.1348 18.0019C11.922 18.0019 11.7093 18.0183 11.4884 18.0347L11.4802 18.0429ZM16.3895 9.05074C16.3895 9.05074 16.4058 9.05074 16.414 9.05074C16.414 8.41253 16.4304 7.76615 16.414 7.12794C16.3813 6.35883 16.3649 5.58153 16.2504 4.82059C16.054 3.5851 15.334 2.75871 14.1067 2.4396C13.6076 2.30869 13.0921 2.21869 12.5848 2.20232C11.382 2.15323 10.1793 2.15323 8.97648 2.14505C8.10918 2.14505 7.24188 2.14505 6.3664 2.1696C5.7282 2.17778 5.09817 2.21051 4.47633 2.37415C3.45357 2.64416 2.74991 3.24963 2.41445 4.26421C2.1608 5.03333 2.09535 5.83517 2.09535 6.63702C2.07898 8.47799 2.07898 10.319 2.09535 12.1599C2.09535 12.7163 2.15262 13.2727 2.26717 13.8209C2.54536 15.1791 3.35539 16.0464 4.74634 16.2919C5.31091 16.3901 5.89184 16.4474 6.47276 16.4555C8.12555 16.4801 9.77833 16.4964 11.4311 16.4801C12.192 16.4801 12.953 16.431 13.7057 16.3164C15.0394 16.1201 15.9394 15.2773 16.2095 13.9845C16.3158 13.4773 16.3813 12.9536 16.3895 12.4299C16.414 11.309 16.3976 10.188 16.3976 9.07528L16.3895 9.05074Z" fill="black"/>
<path d="M9.2604 4.83789C11.7314 4.83789 13.7278 6.82614 13.7442 9.30531C13.7605 11.7681 11.7641 13.7809 9.28494 13.7891C6.80577 13.7973 4.79297 11.8009 4.79297 9.3135C4.79297 6.83432 6.78122 4.83789 9.2604 4.83789ZM9.27676 6.40885C7.66489 6.40885 6.37212 7.69344 6.36394 9.29713C6.36394 10.909 7.64852 12.21 9.25221 12.2181C10.8723 12.2181 12.1732 10.9336 12.1732 9.32168C12.1732 7.70981 10.8886 6.41703 9.27676 6.40885Z" fill="black"/>
<path d="M13.7383 3.0791C14.4911 3.0791 15.0884 3.66003 15.0966 4.41278C15.1048 5.17372 14.5075 5.77919 13.7547 5.78737C13.0101 5.78737 12.3965 5.19008 12.3965 4.45369C12.3965 3.69276 12.9856 3.08728 13.7383 3.08728V3.0791Z" fill="black"/>
</svg>
