<svg width="94" height="24" viewBox="0 0 94 24" fill="none" xmlns="http://www.w3.org/2000/svg">
<g clip-path="url(#clip0_247_1158)">
<path d="M17.0437 13.9196V18.9482C17.0437 19.6169 16.4968 20.1636 15.8178 20.1636H3.19455C2.66137 20.1636 2.15097 19.9512 1.77272 19.5807L0 17.8232H2.56111L3.11252 18.3699H15.2299V14.5069H11.0784C9.54264 14.5069 8.77248 12.6636 9.85708 11.5883L13.1291 8.34427H3.86901L2.05527 6.54608H15.0021C15.3986 6.54608 15.7221 6.86686 15.7221 7.25994V7.82921C15.7221 8.15903 15.59 8.47078 15.353 8.70572L11.288 12.7087H15.8178C16.4923 12.7087 17.0437 13.2509 17.0437 13.9241V13.9196Z" fill="black"/>
<path d="M36.7592 15.8581V17.6563H27.2439C26.8064 17.6563 26.3735 17.5614 25.9816 17.3717L20.7773 14.9093L21.6842 13.3506L27.0662 15.8581H36.7592Z" fill="black"/>
<path d="M54.2091 7.73476V20.1369H52.3954V8.34019H42.0325V20.1369H40.2188V7.73476C40.2188 7.07513 40.7565 6.54199 41.4218 6.54199H53.0061C53.6714 6.54199 54.2091 7.07513 54.2091 7.73476Z" fill="black"/>
<path d="M93.2039 18.4561H91.217L89.2711 7.52241C89.1708 6.95314 88.6695 6.54199 88.0908 6.54199L80.7902 6.56458C80.2115 6.56458 79.7193 6.98025 79.6191 7.54049L77.8281 17.5435H79.6874L81.3234 8.33567H87.5849L89.385 18.4516H79.5279L79.6874 17.5435H77.8236L77.3359 20.2498H91.9188L90.26 23.1007L91.8322 23.9998L93.8282 20.5751C93.9512 20.3628 94.015 20.1233 94.015 19.8793V19.2423C94.015 18.804 93.6596 18.4516 93.2175 18.4516L93.2039 18.4561Z" fill="black"/>
<path d="M37.1381 20.1367H35.0463L28.3838 8.69696L21.7213 20.1367H19.625L27.3676 6.84455C27.8187 6.06744 28.9489 6.06744 29.4001 6.84455L37.1426 20.1367H37.1381Z" fill="black"/>
<path d="M73.9897 15.8581V17.6563H64.4744C64.0369 17.6563 63.604 17.5614 63.2121 17.3717L58.0078 14.9093L58.9147 13.3506L64.2967 15.8581H73.9897Z" fill="black"/>
<path d="M74.3646 20.1367H72.2729L65.6104 8.69696L58.9478 20.1367H56.8516L64.5941 6.84455C65.0453 6.06744 66.1755 6.06744 66.6266 6.84455L74.3692 20.1367H74.3646Z" fill="black"/>
<path d="M13.7568 3.07229L3.28906 1.53614L13.7568 0V3.07229Z" fill="black"/>
</g>
<defs>
<clipPath id="clip0_247_1158">
<rect width="94" height="24" fill="white"/>
</clipPath>
</defs>
</svg>
