<svg width="103" height="26" viewBox="0 0 103 26" fill="none" xmlns="http://www.w3.org/2000/svg">
<g clip-path="url(#clip0_247_719)">
<path d="M18.6755 15.0797V20.5274C18.6755 21.2518 18.0763 21.8441 17.3323 21.8441H3.50041C2.91618 21.8441 2.35691 21.614 1.94245 21.2127L0 19.3087H2.80632L3.41053 19.9009H16.6881V15.716H12.1391C10.4563 15.716 9.6124 13.7191 10.8008 12.5541L14.3861 9.03984H4.23944L2.25205 7.0918H16.4385C16.8729 7.0918 17.2274 7.43931 17.2274 7.86514V8.48186C17.2274 8.83916 17.0826 9.17689 16.8229 9.43141L12.3688 13.768H17.3323C18.0713 13.768 18.6755 14.3554 18.6755 15.0846V15.0797Z" fill="black"/>
<path d="M40.2806 17.1804V19.1284H29.8543C29.3749 19.1284 28.9005 19.0256 28.4711 18.82L22.7686 16.1525L23.7623 14.4639L29.6595 17.1804H40.2806Z" fill="black"/>
<path d="M59.3983 8.38104V21.8167H57.4109V9.03691H46.0558V21.8167H44.0684V8.38104C44.0684 7.66643 44.6576 7.08887 45.3866 7.08887H58.08C58.809 7.08887 59.3983 7.66643 59.3983 8.38104Z" fill="black"/>
<path d="M102.126 19.9959H99.9493L97.8171 8.15099C97.7073 7.53427 97.158 7.08887 96.5238 7.08887L88.5243 7.11334C87.8901 7.11334 87.3508 7.56364 87.241 8.17057L85.2786 19.0072H87.3159L89.1085 9.03202H95.9695L97.942 19.991H87.1411L87.3159 19.0072H85.2736L84.7393 21.939H100.718L98.9007 25.0275L100.623 26.0015L102.811 22.2914C102.945 22.0614 103.015 21.802 103.015 21.5377V20.8475C103.015 20.3728 102.626 19.991 102.141 19.991L102.126 19.9959Z" fill="black"/>
<path d="M40.6918 21.8154H38.3998L31.0994 9.42236L23.7989 21.8154H21.502L29.9858 7.41558C30.4802 6.57371 31.7186 6.57371 32.2129 7.41558L40.6968 21.8154H40.6918Z" fill="black"/>
<path d="M81.0745 17.1804V19.1284H70.6482C70.1688 19.1284 69.6945 19.0256 69.265 18.82L63.5625 16.1525L64.5562 14.4639L70.4535 17.1804H81.0745Z" fill="black"/>
<path d="M81.4838 21.8154H79.1918L71.8914 9.42236L64.5909 21.8154H62.2939L70.7778 7.41558C71.2722 6.57371 72.5106 6.57371 73.0049 7.41558L81.4888 21.8154H81.4838Z" fill="black"/>
<path d="M15.0745 3.32831L3.60449 1.66416L15.0745 0V3.32831Z" fill="black"/>
</g>
<defs>
<clipPath id="clip0_247_719">
<rect width="103" height="26" fill="white"/>
</clipPath>
</defs>
</svg>
