<svg width="100" height="92" viewBox="0 0 100 92" fill="none" xmlns="http://www.w3.org/2000/svg">
<g clip-path="url(#clip0_310_30)">
<path fill-rule="evenodd" clip-rule="evenodd" d="M45.9629 10.1213C46.2854 11.5213 49.1919 17.9813 50.1614 20.3511C50.9149 22.2898 52.9604 23.1511 55.5433 24.7661C57.1578 25.7349 56.6193 26.0585 58.6648 25.3048C60.9253 24.551 63.6168 23.4747 65.8773 22.8285L59.4183 0C58.4498 0.431151 53.9289 4.09132 52.7444 4.95363C51.5599 5.92243 50.5914 6.56865 49.2994 7.53746C48.3309 8.2912 46.7164 9.36754 45.9629 10.1213Z" fill="#EB6907"/>
<path fill-rule="evenodd" clip-rule="evenodd" d="M70.5068 25.4124C71.3678 24.7662 72.4448 23.4738 73.1983 22.6125C74.1667 21.5361 73.9518 19.8126 74.1667 17.9825C74.5978 13.0289 75.1352 13.6751 73.5207 10.9837C73.0897 10.1224 72.9822 9.69128 72.2287 9.36868C71.0442 9.90736 71.2603 10.23 70.7217 13.7836L66.7393 11.1998L68.0313 9.15362C67.4928 8.07728 61.4648 2.15484 60.1738 0.754883C60.3888 2.47744 61.4658 5.59995 62.0033 7.43106C62.6493 9.6923 63.4028 11.9535 64.0488 14.3223C64.6948 16.5835 65.3408 18.8448 66.0943 21.2135C66.6328 23.2597 66.3093 22.8286 67.9238 23.7974C68.7848 24.4436 69.6458 24.9823 70.6153 25.5199L70.5078 25.4124H70.5068Z" fill="#8B0F23"/>
<path fill-rule="evenodd" clip-rule="evenodd" d="M30.7862 8.61395C32.1857 9.47523 38.3211 13.6751 39.1821 13.9977C45.1026 9.90638 44.3491 10.7677 46.9321 6.35271C47.5781 5.27637 48.3316 4.19901 48.7616 3.01514C46.5011 3.44629 36.8131 6.67633 33.0456 7.75267C32.1847 7.96774 31.3237 8.18383 30.7852 8.61395H30.7862Z" fill="#649762"/>
<path fill-rule="evenodd" clip-rule="evenodd" d="M27.4501 22.29C28.2036 21.9674 35.7385 16.4751 37.2455 15.3988C37.999 14.8601 38.1065 14.9676 38.645 14.2139C37.4605 13.6752 35.7385 12.3838 34.4465 11.5215C32.9395 10.5527 31.6475 9.6914 30.248 8.8291C29.4945 9.90544 28.31 12.9204 27.7725 14.3204C27.1265 15.9354 27.3415 20.3504 27.5576 22.289H27.4501V22.29Z" fill="#8B0F23"/>
<path fill-rule="evenodd" clip-rule="evenodd" d="M39.1818 31.0113C38.9668 29.3963 36.9213 26.0577 36.8138 24.7663C36.7064 23.5814 38.4283 21.7513 38.8593 20.3513C37.9984 19.8126 36.8138 19.49 35.9529 19.0589C34.3384 18.4127 34.4459 18.1976 33.2614 19.1664C31.8619 20.2428 29.6014 21.7502 28.5254 22.8276C29.0639 23.3663 30.1399 24.12 30.8934 24.6577L39.3968 31.0103H39.1818V31.0113Z" fill="#8B0F23"/>
<path fill-rule="evenodd" clip-rule="evenodd" d="M57.8047 26.3812C62.6482 28.3198 62.0032 31.5499 68.3536 30.9037L66.2006 23.3662L57.8047 26.3812Z" fill="#8B0F23"/>
<path fill-rule="evenodd" clip-rule="evenodd" d="M39.8281 20.1362L50.3771 24.3361C50.2696 21.3211 50.5921 22.1824 46.9321 19.7061C45.5326 18.7373 43.3796 17.2298 41.9801 16.4761L41.6576 16.7987L40.9041 17.9836C40.4731 18.7373 40.1506 19.1685 39.9356 20.0297L39.8281 20.1373V20.1362Z" fill="#8B0F23"/>
<path fill-rule="evenodd" clip-rule="evenodd" d="M42.0879 16.0437L49.7304 20.9974L45.3169 10.3374L42.0879 16.0437Z" fill="#649762"/>
<path fill-rule="evenodd" clip-rule="evenodd" d="M45.9629 9.15264C47.1474 8.50643 57.1578 1.0765 57.9113 0.322754C56.6193 0.537817 50.9149 2.15284 49.8379 2.69152C48.9769 3.12267 46.5014 8.07528 45.9629 9.15264Z" fill="#8B0F23"/>
<path fill-rule="evenodd" clip-rule="evenodd" d="M51.2385 30.9035L54.36 31.011L55.006 26.9197L50.916 25.3047L51.2385 30.9035Z" fill="#8B0F23"/>
<path fill-rule="evenodd" clip-rule="evenodd" d="M34.875 17.9824L39.181 19.8125C39.827 18.8437 40.903 17.0126 41.2265 16.0438L39.181 14.8589C38.2125 15.29 35.736 17.2277 34.875 17.9814V17.9824Z" fill="#8B0F23"/>
<path fill-rule="evenodd" clip-rule="evenodd" d="M26.5877 31.011H28.8482L27.3412 23.5811C26.5877 24.0122 26.1567 24.4423 25.5117 24.766L26.5877 31.011Z" fill="#8B0F23"/>
<path fill-rule="evenodd" clip-rule="evenodd" d="M67.3848 10.7674C67.9233 11.5211 69.3228 12.3824 70.2913 12.8136L71.5833 5.06104C70.7223 5.81478 70.1838 6.89112 69.4303 7.96849C68.7843 8.82976 68.0308 10.1222 67.2773 10.8759L67.3848 10.7684V10.7674Z" fill="#1D1D1B"/>
<path fill-rule="evenodd" clip-rule="evenodd" d="M50.8086 24.5512C51.4546 24.9823 54.2536 26.1662 55.1146 26.2737C55.3296 24.9813 55.4371 25.4124 53.2851 24.0125C52.5316 23.4738 51.5631 22.9361 50.8096 22.3975V24.5512H50.8086Z" fill="#8B0F23"/>
<path fill-rule="evenodd" clip-rule="evenodd" d="M27.6641 23.2588L29.0636 29.5038L29.8171 24.8738C29.2786 24.3351 28.3101 23.5814 27.5566 23.2588H27.6641Z" fill="#8B0F23"/>
<path fill-rule="evenodd" clip-rule="evenodd" d="M39.7198 14.4289L41.5493 15.7214L43.9173 11.5215C43.1638 11.7365 43.2713 11.7365 42.6253 12.1677L39.6113 14.4289H39.7188H39.7198Z" fill="#649762"/>
<path d="M0 65.0384V44.5797L11.9484 45.0108V47.2721H4.30599V51.687H5.27447C7.21247 51.687 8.82696 51.9021 10.0104 52.3332C11.1949 52.7644 12.1634 53.5181 13.0244 54.5945L9.68795 57.2869C9.04195 56.102 7.53496 55.5643 5.27447 55.5643H4.41348V61.5943L0.107496 65.0384H0ZM13.2404 55.0246C13.3479 55.1321 13.3479 55.2397 13.4554 55.3472L9.90295 58.2546C9.90295 58.1471 9.90295 58.0396 9.79545 57.9321L13.2404 55.0246ZM5.27447 61.7008H5.70548L0.753496 65.7921H0.322488L5.27447 61.7008ZM0 44.3636V43.0712H11.9484V44.7937L0 44.3636ZM13.7779 55.9924C14.1004 56.8537 14.3164 57.8225 14.3164 58.8998C14.3164 60.5149 13.9939 61.8073 13.3479 62.6686C12.7019 63.6374 11.8409 64.3911 10.8725 64.9298C9.79647 65.576 8.28948 65.7911 6.45898 65.7911H0.968488L5.92047 61.6998C7.64246 61.6998 8.71947 61.3772 9.25695 60.946C9.79545 60.4073 10.0104 59.7611 10.0104 58.8998V58.7923L12.4859 56.7461L12.7009 56.9612L13.7769 56.0999V55.9924H13.7779ZM34.7683 43.0712V45.5475L29.8163 45.3324L31.2158 42.9636H34.7683V43.0712ZM34.7683 45.7636V58.6848L30.4623 65.576V51.5774L21.8514 65.8986H18.0839V51.0388L22.3899 47.3776V57.8225L29.6024 45.655L34.7693 45.8701V45.7625L34.7683 45.7636ZM18.0839 50.5011V45.2249L22.3899 45.3324V46.9474L18.0839 50.3936V50.5011ZM34.7683 59.8686V65.8986H31.1083L34.7683 59.8686ZM18.0839 45.0088V43.0702H22.3899V45.1163L18.0839 45.0088ZM41.0123 59.9762C42.1968 61.5912 43.4878 62.3449 45.1023 62.3449C45.7483 62.3449 46.3943 62.2374 46.9318 61.9138L47.6853 66.1137C46.9318 66.3287 46.0708 66.4363 45.2098 66.4363C43.8103 66.4363 42.5183 66.2212 41.4423 65.6825C40.3663 65.1438 39.0743 64.0675 37.7823 62.3449L41.1188 59.9762H41.0113H41.0123ZM47.3628 61.6987C47.4703 61.6987 47.4703 61.5912 47.5778 61.5912C48.2238 61.0525 48.5462 60.1912 48.5462 59.2224C48.5462 58.2536 48.2238 57.4999 47.5778 56.8537C47.3628 56.6386 46.9318 56.4225 46.5018 56.2075L46.0708 53.5151H45.7483L45.4258 51.685C45.7483 51.5774 46.0718 51.3624 46.2868 51.1463C46.9328 50.6076 47.1478 49.9614 47.1478 48.9926C47.1478 48.1313 46.9328 47.4851 46.3943 47.0539C45.9633 46.6228 45.3183 46.3002 44.4563 46.3002L44.0253 43.9314L44.9938 42.3164C46.7157 42.3164 48.2227 42.8551 49.5147 43.9314C50.8067 45.0078 51.4527 46.5153 51.4527 48.3464C51.4527 49.2076 51.3452 49.9614 51.0217 50.7151C50.6992 51.4689 49.9457 52.3302 48.6537 53.1914C51.3452 54.3763 52.6362 56.4215 52.6362 59.3289C52.6362 61.4826 51.8827 63.2052 50.4832 64.4976C49.7297 65.1438 48.8687 65.6825 47.9002 66.0051L47.1467 61.5902L47.3617 61.6977L47.3628 61.6987ZM45.8558 56.0999C45.3173 55.9924 44.5638 55.8849 43.7028 55.8849H42.7343V52.0086H43.7028C44.2413 52.0086 44.6713 52.0086 45.1023 51.9011L45.8558 56.1009V56.0999ZM44.1338 46.5163C43.4878 46.6238 42.9493 46.8389 42.3043 47.27L43.8113 44.6862L44.1338 46.5163ZM41.4423 47.9162L38.8593 45.1163C40.2588 43.8239 41.3348 43.1777 42.3043 42.8551C42.6268 42.7476 43.0578 42.64 43.3803 42.64L43.7028 44.3626L41.4423 48.0238V47.9162ZM43.8103 42.5325C44.1328 42.5325 44.4563 42.425 44.7788 42.425L44.0253 43.7174L43.8103 42.5325ZM67.5997 42.5325C68.3532 42.5325 69.1067 42.64 69.7527 42.7476L66.2002 46.9474C64.6932 47.1625 63.2937 47.9162 62.2177 49.1011C60.9257 50.5011 60.1722 52.1161 60.0647 54.1623L56.2972 58.5772C55.8662 57.2848 55.6512 55.9934 55.6512 54.5935C55.6512 52.4397 56.1897 50.3936 57.2657 48.5635C58.3417 46.7334 59.7412 45.3334 61.5717 44.2561C63.4012 43.1797 65.4467 42.641 67.4922 42.641L67.5997 42.5335V42.5325ZM70.6136 42.8551C72.6591 43.3938 74.3811 44.3626 75.9956 45.9776C78.3636 48.3464 79.4406 51.1463 79.4406 54.4839C79.4406 55.3451 79.3331 56.0989 79.2256 56.9602L74.8121 56.4215C74.9196 55.7753 75.0271 55.2366 75.0271 54.4828C75.0271 52.3291 74.2736 50.4991 72.8741 48.9916C71.4746 47.4841 69.6452 46.7303 67.5997 46.7303H66.8462L68.5682 44.7917L68.7831 45.0067L70.6126 42.853L70.6136 42.8551ZM79.1171 57.2838C78.6861 59.4375 77.6101 61.3751 75.9956 62.9912C73.7351 65.2524 70.9361 66.4373 67.7072 66.4373C64.2622 66.4373 61.4642 65.2524 59.2037 62.8836C58.3427 62.0224 57.5892 61.0535 57.0507 59.9762L58.6652 58.1461L58.4502 57.2848L56.7282 59.331C56.6207 59.1159 56.5132 58.8998 56.4057 58.6848L60.0657 54.4849V55.2386L58.4512 57.0687L58.6662 57.2838L60.0657 55.6688C60.2807 57.7149 61.1417 59.33 62.7572 60.5138C64.1567 61.6987 65.7712 62.2364 67.6007 62.2364C69.6462 62.2364 71.3682 61.4826 72.8752 59.9752C73.8437 59.0063 74.3822 57.929 74.8132 56.7451L79.2266 57.2838H79.1191H79.1171ZM83.5306 43.0702H87.9441V51.684H95.5865V43.0702H100V59.6526L95.5865 59.1139V55.9914H87.9441V58.1451L83.5306 57.6064V43.0702ZM100 60.0837V65.8986H95.5865V59.4375L100 59.9762V60.0837ZM87.9441 58.4687V65.8986H83.5306V57.93L87.9441 58.4687Z" fill="#1D1D1B"/>
<path d="M22.9531 77.7056H24.0353V79.6452L25.5627 77.7056H26.8476L24.884 80.2167L27.039 83.332H25.7695L24.0353 80.8322V83.332H22.9531V77.7056Z" fill="#8B0F23"/>
<path d="M29.5714 82.0416L27.573 77.7056H28.7821L30.1068 80.8434L31.192 77.7056H32.2926L30.7958 81.7293C30.5378 82.4175 30.2584 82.8794 29.9563 83.1129C29.6533 83.3453 29.3318 83.4621 28.9899 83.4621C28.434 83.4621 27.9211 83.1907 27.4512 82.6449L28.1555 81.9372C28.435 82.2639 28.7125 82.4267 28.9858 82.4267C29.1087 82.4267 29.21 82.396 29.2888 82.3366C29.3666 82.2772 29.4619 82.1789 29.5724 82.0416H29.5714Z" fill="#8B0F23"/>
<path d="M36.8564 83.333L35.2992 79.1956L33.7154 83.333H32.5801L34.7505 77.7065H35.8377L38.0009 83.333H36.8574H36.8564Z" fill="#8B0F23"/>
<path d="M42.941 77.7056V83.332H41.8701V79.8091L39.7724 83.332H38.8418V77.7056H39.9127V81.3432L42.038 77.7056H42.941Z" fill="#8B0F23"/>
<path d="M44.418 77.7056H45.5032V79.8285H47.3808V77.7056H48.4629V83.332H47.3808V80.8649H45.5032V83.332H44.418V77.7056Z" fill="#8B0F23"/>
<path d="M51.6586 77.7056H52.7458L54.9091 83.332H53.7962L53.355 82.1727H51.0607L50.6041 83.332H49.4902L51.6586 77.7056ZM52.2094 79.1977L51.4549 81.1292H52.9588L52.2094 79.1977Z" fill="#8B0F23"/>
<path d="M55.9288 77.7056H57.0641C57.6774 77.7056 58.1206 77.7629 58.3919 77.8756C58.6632 77.9903 58.8772 78.1726 59.0349 78.4276C59.1915 78.6805 59.2703 78.9847 59.2703 79.34C59.2703 79.7323 59.168 80.059 58.9622 80.3191C58.7574 80.5792 58.4779 80.7605 58.1258 80.8629C57.919 80.9213 57.5443 80.9499 56.9986 80.9499V83.3331H55.9277V77.7066L55.9288 77.7056ZM56.9996 79.9054H57.3405C57.6077 79.9054 57.7941 79.8859 57.8975 79.848C58.0029 79.8091 58.0838 79.7456 58.1442 79.6575C58.2036 79.5684 58.2343 79.4619 58.2343 79.337C58.2343 79.1199 58.1503 78.9611 57.9824 78.8608C57.8596 78.786 57.6323 78.7502 57.3016 78.7502H56.9996V79.9054Z" fill="#8B0F23"/>
<path d="M60.5078 77.7056H61.593V79.8285H63.4706V77.7056H64.5527V83.332H63.4706V80.8649H61.593V83.332H60.5078V77.7056Z" fill="#8B0F23"/>
<path d="M66.0312 83.333V77.7065H67.1021V79.8295H67.3345C67.7799 79.8295 68.1515 79.8818 68.4484 79.9842C68.7443 80.0876 69.0012 80.2842 69.2183 80.573C69.4343 80.8618 69.5428 81.211 69.5428 81.6197C69.5428 82.0047 69.4496 82.3314 69.2643 82.5987C69.078 82.867 68.862 83.0555 68.6173 83.1671C68.3716 83.2777 68.0348 83.334 67.6068 83.334H66.0343L66.0312 83.333ZM67.1021 80.786V82.312H67.3693C67.8116 82.312 68.1075 82.2567 68.258 82.1471C68.4074 82.0375 68.4832 81.8511 68.4832 81.5849C68.4832 81.0533 68.0962 80.786 67.3232 80.786H67.1031H67.1021ZM70.3219 77.7065H71.3846V83.333H70.3219V77.7065Z" fill="#8B0F23"/>
<path d="M76.9586 77.7054V83.3319H75.8877V79.8089L73.79 83.3319H72.8594V77.7054H73.9302V81.343L76.0556 77.7054H76.9586ZM73.3805 76.1948H74.2251C74.2916 76.3003 74.3838 76.3781 74.5025 76.4304C74.6213 76.4826 74.7656 76.5082 74.9366 76.5082C75.1076 76.5082 75.2663 76.4775 75.4075 76.416C75.4987 76.3751 75.5785 76.3013 75.6481 76.1948H76.4938C76.4446 76.5195 76.29 76.7796 76.029 76.9752C75.7679 77.1708 75.4024 77.2701 74.9346 77.2701C74.6182 77.2701 74.3541 77.2261 74.1401 77.137C73.9282 77.05 73.7562 76.924 73.6262 76.7601C73.4972 76.5983 73.4153 76.4089 73.3825 76.1948H73.3805Z" fill="#8B0F23"/>
<path d="M31.9795 86.2319H33.0217L34.326 90.1573L35.6415 86.2319H36.6837L37.6266 91.8584H36.5916L35.9886 88.3058L34.7938 91.8584H33.8509L32.6664 88.3058L32.0491 91.8584H31.0059L31.9795 86.2319Z" fill="#8B0F23"/>
<path d="M40.391 86.2319H41.4783L43.6415 91.8584H42.5286L42.0874 90.6991H39.7931L39.3365 91.8584H38.2227L40.391 86.2319ZM40.9418 87.7241L40.1873 89.6555H41.6912L40.9418 87.7241Z" fill="#8B0F23"/>
<path d="M44.6621 86.2319H47.4529V87.2806H45.7248V91.8584H44.6621V86.2319Z" fill="#8B0F23"/>
<path d="M50.2016 86.2319H51.2888L53.452 91.8584H52.3392L51.8979 90.6991H49.6037L49.1471 91.8584H48.0332L50.2016 86.2319ZM50.7523 87.7241L49.9978 89.6555H51.5017L50.7523 87.7241Z" fill="#8B0F23"/>
<path d="M54.7408 90.3941C55.0244 90.7894 55.3561 90.9871 55.7369 90.9871C55.9898 90.9871 56.1956 90.9164 56.3502 90.7741C56.5068 90.6307 56.5846 90.4402 56.5846 90.2036C56.5846 89.9671 56.5089 89.7786 56.3573 89.626C56.2058 89.4734 55.8905 89.3966 55.4155 89.3966H55.1861V88.4401H55.4155C55.698 88.4401 55.912 88.3756 56.0594 88.2455C56.2068 88.1165 56.2795 87.9414 56.2795 87.7222C56.2795 87.5205 56.2181 87.3617 56.0953 87.244C55.9714 87.1272 55.8096 87.0678 55.6079 87.0678C55.3673 87.0678 55.1206 87.1866 54.8677 87.4232L54.2371 86.7196C54.576 86.4144 54.8596 86.2311 55.0868 86.1707C55.3141 86.1113 55.523 86.0806 55.7144 86.0806C56.1751 86.0806 56.5611 86.2147 56.8733 86.483C57.1856 86.7503 57.3422 87.1108 57.3422 87.5655C57.3422 87.7663 57.3074 87.9629 57.2368 88.1544C57.1671 88.3449 56.9706 88.5476 56.6501 88.7617C57.3074 89.0546 57.6371 89.5564 57.6371 90.2651C57.6371 90.7874 57.461 91.2073 57.1098 91.5247C56.7587 91.8422 56.3072 92.001 55.7574 92.001C55.4103 92.001 55.0981 91.9375 54.8227 91.8115C54.5473 91.6855 54.2473 91.4121 53.9238 90.9953L54.7428 90.3941H54.7408Z" fill="#8B0F23"/>
<path d="M62.9468 86.2319V91.8584H61.876V88.3355L59.7783 91.8584H58.8477V86.2319H59.9185V89.8696L62.0439 86.2319H62.9468Z" fill="#8B0F23"/>
<path d="M64.4238 86.2319H65.509V88.3549H67.3866V86.2319H68.4687V91.8584H67.3866V89.3913H65.509V91.8584H64.4238V86.2319Z" fill="#8B0F23"/>
</g>
<defs>
<clipPath id="clip0_310_30">
<rect width="100" height="92" fill="white"/>
</clipPath>
</defs>
</svg>
