<svg width="163" height="41" viewBox="0 0 163 41" fill="none" xmlns="http://www.w3.org/2000/svg">
<g clip-path="url(#clip0_310_66)">
<path d="M20.5375 10.9534L11.0876 20.257L26.0553 34.9894L20.5375 40.4181L0 20.2059L20.5375 0L41.0815 20.2059L35.5116 25.6857L20.5375 10.9534Z" fill="#1D1D1B"/>
<path d="M45.1371 20.7942L35.6873 30.0915L20.7131 15.3655L15.1953 20.7942L35.7393 41.0001L56.2768 20.7942L35.7328 0.588379L30.1695 6.06187L45.1371 20.7942Z" fill="#1D1D1B"/>
<path d="M72.4277 25.7818V13.249H83.7298V25.7818H81.3836V14.643L81.9296 15.2185H74.2345L74.7804 14.643V25.7818H72.4342H72.4277Z" fill="#1D1D1B"/>
<path d="M85.6797 25.7818L91.412 13.249H93.7387L99.4905 25.7818H96.9948L92.0814 14.4831H93.0303L88.0974 25.7818H85.6797ZM88.3184 22.8788L88.9748 21.05H95.8379L96.4749 22.8788H88.3249H88.3184Z" fill="#1D1D1B"/>
<path d="M101.439 25.7818V13.249H106.678C107.809 13.249 108.771 13.4281 109.583 13.7797C110.389 14.1314 111.013 14.643 111.448 15.308C111.884 15.9794 112.105 16.7787 112.105 17.7058C112.105 18.633 111.884 19.4131 111.448 20.0781C111.013 20.7431 110.389 21.2546 109.583 21.6191C108.777 21.9836 107.809 22.1626 106.678 22.1626H102.765L103.805 21.0884V25.7818H101.439ZM103.805 21.3442L102.765 20.1996H106.567C107.614 20.1996 108.394 19.9822 108.927 19.5474C109.453 19.1126 109.719 18.4987 109.719 17.7122C109.719 16.9257 109.453 16.3119 108.927 15.8771C108.4 15.4423 107.614 15.2248 106.567 15.2248H102.765L103.805 14.0803V21.3506V21.3442Z" fill="#1D1D1B"/>
<path d="M116.648 25.7818V14.643L117.214 15.2185H112.443V13.249H123.219V15.2185H118.449L118.975 14.643V25.7818H116.648Z" fill="#1D1D1B"/>
<path d="M127.625 25.7818H125.26V13.249H127.625V25.7818ZM134.398 20.4106H127.443V18.422H134.398V20.4106ZM134.216 13.249H136.562V25.7818H134.216V13.249Z" fill="#1D1D1B"/>
<path d="M142.508 23.8123H149.696V25.7818H140.143V13.249H149.443V15.2185H142.508V23.8123ZM142.326 18.4603H148.657V20.3786H142.326V18.4603Z" fill="#1D1D1B"/>
<path d="M152.336 25.7818V13.249H157.574C158.705 13.249 159.667 13.4281 160.479 13.7797C161.285 14.1314 161.909 14.643 162.345 15.308C162.78 15.9794 163.001 16.7787 163.001 17.7058C163.001 18.633 162.78 19.4131 162.345 20.0781C161.909 20.7431 161.285 21.2546 160.479 21.6191C159.674 21.9836 158.705 22.1626 157.574 22.1626H153.662L154.702 21.0884V25.7818H152.336ZM154.702 21.3442L153.662 20.1996H157.464C158.51 20.1996 159.29 19.9822 159.823 19.5474C160.349 19.1126 160.616 18.4987 160.616 17.7122C160.616 16.9257 160.349 16.3119 159.823 15.8771C159.297 15.4423 158.51 15.2248 157.464 15.2248H153.662L154.702 14.0803V21.3506V21.3442Z" fill="#1D1D1B"/>
</g>
<defs>
<clipPath id="clip0_310_66">
<rect width="163" height="41" fill="white"/>
</clipPath>
</defs>
</svg>
