<svg width="23" height="23" viewBox="0 0 23 23" fill="none" xmlns="http://www.w3.org/2000/svg">
<path d="M14.2221 22.0602H7.8521C7.7521 22.0502 7.6621 22.0402 7.5621 22.0302C6.9221 21.9602 6.2721 21.9302 5.6421 21.8002C3.3421 21.3202 1.8321 19.9702 1.2021 17.6802C0.892099 16.5302 0.862101 15.3502 0.852101 14.1702C0.842101 12.3202 0.852101 10.4602 0.852101 8.61023C0.852101 7.57023 0.892101 6.54023 1.1021 5.52023C1.3921 4.04023 2.1021 2.83023 3.3421 1.94023C4.4021 1.18023 5.6121 0.850234 6.8821 0.820234C9.1221 0.760234 11.3621 0.740234 13.6121 0.740234C14.8121 0.740234 16.0121 0.740234 17.2021 0.930234C19.6821 1.34023 21.3521 2.90023 21.9021 5.35023C22.1021 6.21023 22.1321 7.08023 22.1521 7.96023C22.1521 8.23023 22.1721 8.50024 22.1921 8.77024V14.1002C22.1821 14.3502 22.1621 14.6002 22.1521 14.8402C22.1321 15.7102 22.1021 16.5902 21.8921 17.4402C21.3321 19.7202 19.9521 21.1802 17.6621 21.7402C16.7921 21.9502 15.9021 21.9902 15.0221 22.0102C14.7621 22.0102 14.5021 22.0302 14.2321 22.0502L14.2221 22.0602ZM20.2221 11.0702C20.2221 11.0702 20.2421 11.0702 20.2521 11.0702C20.2521 10.2902 20.2721 9.50023 20.2521 8.72023C20.2121 7.78023 20.1921 6.83023 20.0521 5.90023C19.8121 4.39023 18.9321 3.38023 17.4321 2.99023C16.8221 2.83023 16.1921 2.72023 15.5721 2.70023C14.1021 2.64023 12.6321 2.64023 11.1621 2.63023C10.1021 2.63023 9.0421 2.63023 7.9721 2.66023C7.1921 2.67023 6.4221 2.71023 5.6621 2.91023C4.4121 3.24023 3.5521 3.98023 3.1421 5.22023C2.8321 6.16023 2.7521 7.14023 2.7521 8.12023C2.7321 10.3702 2.7321 12.6202 2.7521 14.8702C2.7521 15.5502 2.8221 16.2302 2.9621 16.9002C3.3021 18.5602 4.2921 19.6202 5.9921 19.9202C6.6821 20.0402 7.3921 20.1102 8.1021 20.1202C10.1221 20.1502 12.1421 20.1702 14.1621 20.1502C15.0921 20.1502 16.0221 20.0902 16.9421 19.9502C18.5721 19.7102 19.6721 18.6802 20.0021 17.1002C20.1321 16.4802 20.2121 15.8402 20.2221 15.2002C20.2521 13.8302 20.2321 12.4602 20.2321 11.1002L20.2221 11.0702Z" fill="#959595"/>
<path d="M11.5118 5.92041C14.5318 5.92041 16.9718 8.35041 16.9918 11.3804C17.0118 14.3904 14.5718 16.8504 11.5418 16.8604C8.51176 16.8704 6.05176 14.4304 6.05176 11.3904C6.05176 8.36041 8.48176 5.92041 11.5118 5.92041ZM11.5318 7.84041C9.56176 7.84041 7.98176 9.41041 7.97176 11.3704C7.97176 13.3404 9.54176 14.9304 11.5018 14.9404C13.4818 14.9404 15.0718 13.3704 15.0718 11.4004C15.0718 9.43041 13.5018 7.85041 11.5318 7.84041Z" fill="#959595"/>
<path d="M16.9818 3.77002C17.9018 3.77002 18.6318 4.48002 18.6418 5.40002C18.6518 6.33002 17.9218 7.07002 17.0018 7.08002C16.0918 7.08002 15.3418 6.35002 15.3418 5.45002C15.3418 4.52002 16.0618 3.78002 16.9818 3.78002V3.77002Z" fill="#959595"/>
</svg>
