<svg width="22" height="19" viewBox="0 0 22 19" fill="none" xmlns="http://www.w3.org/2000/svg">
<path d="M0.777922 6.59006C3.11792 8.05006 5.37791 9.46006 7.62791 10.8601C8.55791 11.4401 9.49792 12.0101 10.4179 12.6101C10.9479 12.9601 11.4179 12.9501 11.9579 12.6101C15.0279 10.6801 18.1179 8.76006 21.1979 6.84006C21.3079 6.77006 21.4279 6.71006 21.5879 6.61006C21.5879 6.81006 21.6079 6.96006 21.6079 7.11006C21.6079 10.2601 21.6079 13.4101 21.6079 16.5501C21.6079 17.8801 20.8579 18.6201 19.5179 18.6201C13.9679 18.6201 8.41791 18.6101 2.87791 18.6201C1.62791 18.6201 0.747912 17.7701 0.767912 16.5101C0.807912 13.3901 0.777922 10.2601 0.777922 7.13006C0.777922 6.96006 0.777922 6.80006 0.777922 6.56006V6.59006Z" fill="#959595"/>
<path d="M21.4183 6.4903H0.988281C1.11828 6.4003 1.20829 6.3303 1.29829 6.2803C4.50829 4.2703 7.72829 2.2703 10.9383 0.260299C11.0983 0.160299 11.2283 0.110299 11.4183 0.230299C14.6583 2.2603 17.8983 4.2803 21.1483 6.3003C21.2183 6.3403 21.2883 6.4003 21.4283 6.4903H21.4183Z" fill="#959595"/>
</svg>
