<svg width="23" height="23" viewBox="0 0 23 23" fill="none" xmlns="http://www.w3.org/2000/svg">
<path d="M10.8679 0C11.3479 0 11.8179 0 12.2979 0C12.5679 0.03 12.8379 0.06 13.1079 0.1C15.6679 0.49 17.8779 1.56 19.6679 3.46C21.2579 5.14 22.2879 7.1 22.6779 9.38C22.7479 9.79 22.7879 10.2 22.8479 10.61V12.04C22.8379 12.1 22.8179 12.17 22.8079 12.23C22.7379 13.22 22.5279 14.18 22.1979 15.12C19.8779 21.56 12.3079 24.51 6.23785 21.35C6.13785 21.3 5.97785 21.28 5.86785 21.31C4.11785 21.76 2.36785 22.22 0.617852 22.68C0.437852 22.73 0.247852 22.77 0.0478516 22.82C0.0778516 22.72 0.0978516 22.64 0.117852 22.57C0.617852 20.76 1.11785 18.95 1.60785 17.14C1.63785 17.04 1.61785 16.9 1.56785 16.81C0.287852 14.46 -0.132148 11.98 0.297852 9.36C1.09785 4.53 4.95785 1 9.57785 0.18C10.0079 0.1 10.4379 0.06 10.8779 0H10.8679ZM2.78785 20.08C2.89785 20.06 2.94785 20.04 3.00785 20.03C4.04785 19.76 5.08785 19.49 6.12785 19.22C6.27785 19.18 6.39785 19.19 6.53785 19.28C8.62785 20.53 10.8679 20.97 13.2679 20.51C18.4079 19.53 21.7279 14.68 20.7879 9.54C19.9079 4.74 15.2779 1.34 10.4279 1.93C7.74785 2.26 5.56785 3.48 3.95785 5.65C2.39785 7.75 1.77785 10.12 2.16785 12.73C2.36785 14.08 2.86785 15.31 3.61785 16.45C3.70785 16.58 3.71785 16.69 3.67785 16.84C3.49785 17.45 3.33785 18.07 3.16785 18.68C3.03785 19.13 2.91785 19.59 2.78785 20.08Z" fill="#959595"/>
<path d="M14.5377 16.6801C13.7377 16.7101 13.0777 16.4101 12.3977 16.1801C10.4777 15.5201 9.00768 14.2701 7.73768 12.7301C7.12768 11.9901 6.52768 11.2501 6.12768 10.3701C5.70768 9.44009 5.54768 8.49009 5.98768 7.53009C6.17768 7.12009 6.46768 6.75009 6.73768 6.39009C6.88768 6.18009 7.13768 6.08009 7.39768 6.07009C7.66768 6.06009 7.93768 6.03009 8.19768 6.09009C8.34768 6.12009 8.50768 6.27009 8.58768 6.41009C8.73768 6.67009 8.83768 6.96009 8.95768 7.24009C9.15768 7.70009 9.33768 8.17009 9.54768 8.63009C9.64768 8.86009 9.64768 9.08009 9.49768 9.28009C9.30768 9.54009 9.12768 9.80009 8.91768 10.0401C8.59768 10.4201 8.58768 10.4601 8.83768 10.8701C9.74768 12.3501 10.9877 13.4301 12.5977 14.0801C12.9377 14.2201 13.0577 14.1901 13.2977 13.9101C13.5677 13.5801 13.8477 13.2501 14.1077 12.9001C14.2477 12.7101 14.4177 12.6601 14.6277 12.7201C14.7077 12.7401 14.7877 12.7701 14.8577 12.8001C15.5677 13.1101 16.2677 13.4301 16.9777 13.7301C17.1877 13.8201 17.2877 13.9701 17.2777 14.2001C17.2577 15.0501 16.9677 15.7601 16.1877 16.2101C15.6577 16.5201 15.1077 16.7301 14.5377 16.6901V16.6801Z" fill="#959595"/>
</svg>
