<svg width="23" height="19" viewBox="0 0 23 19" fill="none" xmlns="http://www.w3.org/2000/svg">
<path fill-rule="evenodd" clip-rule="evenodd" d="M1.51558 8.12977C7.43558 5.54977 11.3856 3.84977 13.3556 3.02977C18.9956 0.679766 20.1656 0.279766 20.9256 0.259766C21.0956 0.259766 21.4656 0.299766 21.7156 0.499766C21.9256 0.669766 21.9756 0.889766 22.0056 1.04977C22.0356 1.20977 22.0656 1.56977 22.0356 1.84977C21.7256 5.05977 20.4056 12.8498 19.7356 16.4498C19.4556 17.9698 18.8856 18.4798 18.3456 18.5298C17.1656 18.6398 16.2756 17.7498 15.1256 16.9998C13.3356 15.8298 12.3256 15.0998 10.5956 13.9598C8.59558 12.6398 9.88558 11.9098 11.0356 10.7298C11.3356 10.4198 16.5256 5.68977 16.6256 5.26977C16.6356 5.21977 16.6456 5.01977 16.5356 4.90977C16.4256 4.79977 16.2456 4.83977 16.1156 4.86977C15.9356 4.90977 13.0856 6.79977 7.55558 10.5298C6.74558 11.0898 6.01558 11.3598 5.35558 11.3398C4.63558 11.3198 3.23558 10.9298 2.19558 10.5898C0.925584 10.1798 -0.0844184 9.95977 0.00558162 9.25977C0.0555816 8.88977 0.555584 8.51977 1.51558 8.13977V8.12977Z" fill="#959595"/>
</svg>
