<svg width="26" height="19" viewBox="0 0 26 19" fill="none" xmlns="http://www.w3.org/2000/svg">
<path d="M16.2572 0.899848C16.4472 0.829848 16.6472 0.699848 16.8372 0.709848C18.9272 0.829848 20.7772 1.59985 22.4672 2.79985C22.5572 2.86985 22.6372 2.97985 22.6872 3.07985C24.5572 6.69985 25.6472 10.5298 25.7672 14.6098C25.7672 14.8898 25.6772 15.0798 25.4872 15.2798C23.7972 17.0198 21.7172 17.8598 19.3272 18.0098C19.0572 18.0298 18.8672 17.9598 18.7072 17.7398C18.3472 17.2698 17.9672 16.8098 17.5472 16.2998C18.9972 15.8198 20.2972 15.1898 21.2672 14.0098C15.7172 17.2098 10.1572 16.9398 4.56719 14.0298C4.91719 14.7798 6.04718 15.5298 8.16718 16.4198C7.72718 16.9698 7.29718 17.5098 6.84718 18.0398C6.79718 18.0998 6.67718 18.1298 6.59718 18.1298C4.39718 18.0398 2.42719 17.3798 0.827188 15.8098C0.367188 15.3598 0.157183 14.8798 0.197183 14.1998C0.397183 10.2898 1.43719 6.61985 3.22719 3.13985C3.31719 2.95985 3.47719 2.78985 3.64719 2.66985C5.26719 1.54985 7.04718 0.839848 9.02718 0.669848C9.23718 0.649848 9.44718 0.709848 9.66718 0.809848C7.74718 1.38985 5.91718 2.08985 4.34718 3.36985C7.06718 2.15985 9.90718 1.52985 12.8772 1.54985C15.8572 1.56985 18.6872 2.25985 21.3872 3.49985C19.8672 2.29985 18.1172 1.56985 16.2872 1.00985C16.2872 0.969848 16.2672 0.929848 16.2572 0.889848V0.899848ZM11.1472 10.6298C11.1472 9.35985 10.1872 8.31985 8.97719 8.29985C7.72719 8.27985 6.68719 9.31985 6.67719 10.5998C6.66719 11.8598 7.67719 12.9198 8.89719 12.9298C10.1372 12.9298 11.1372 11.9198 11.1372 10.6398L11.1472 10.6298ZM14.6972 10.6298C14.6972 11.9098 15.6972 12.9298 16.9472 12.9198C18.1772 12.9198 19.1772 11.8598 19.1672 10.5898C19.1672 9.33985 18.1472 8.28985 16.9572 8.28985C15.6972 8.28985 14.6972 9.31985 14.7072 10.6198L14.6972 10.6298Z" fill="#959595"/>
</svg>
