<svg width="578" height="628" viewBox="0 0 578 628" fill="none" xmlns="http://www.w3.org/2000/svg">
<g filter="url(#filter0_f_296_3)">
<rect x="397" y="124" width="358" height="276" rx="138" transform="rotate(90 397 124)" fill="#132249"/>
</g>
<ellipse opacity="0.3" cx="100.623" cy="504.454" rx="19.3586" ry="15.3068" transform="rotate(1.07583 100.623 504.454)" stroke="#82A0EA" stroke-width="2"/>
<rect opacity="0.3" x="109.529" y="470.367" width="37.2806" height="27.7621" rx="6" transform="rotate(23.1201 109.529 470.367)" stroke="#82A0EA" stroke-width="2"/>
<g opacity="0.3">
<path d="M490.993 47.6657C487.872 57.8713 483.267 84.2801 489.811 108.271" stroke="#75564C" stroke-width="2"/>
<path d="M491.265 47.5071C501.663 49.9073 526.837 59.1234 544.342 76.786" stroke="#75564C" stroke-width="2"/>
<path d="M544.832 76.6C537.089 84.4053 515.205 101.598 489.618 107.927" stroke="#75564C" stroke-width="2"/>
</g>
<g filter="url(#filter1_f_296_3)">
<rect x="109" y="519" width="410" height="316" rx="158" transform="rotate(-90 109 519)" fill="#BCCDF7"/>
</g>
<g opacity="0.3">
<path d="M245.808 435.716C238.729 438.976 222.098 449.303 212.204 464.53" stroke="#75564C" stroke-width="2"/>
<path d="M246.026 435.788C249.773 442.622 256.987 460.821 255.87 478.946" stroke="#75564C" stroke-width="2"/>
<path d="M256.207 479.115C248.19 478.689 228.183 475.12 212.296 464.252" stroke="#75564C" stroke-width="2"/>
</g>
<g opacity="0.3">
<path d="M217.417 156.948C220.53 162.803 230.109 176.43 243.525 184.096" stroke="#75564C" stroke-width="2"/>
<path d="M217.468 156.758C223.091 153.244 238.201 146.233 253.652 146.302" stroke="#75564C" stroke-width="2"/>
<path d="M253.783 146.009C253.81 152.84 251.749 170.009 243.288 184.031" stroke="#75564C" stroke-width="2"/>
</g>
<path opacity="0.3" d="M65.5518 172.573L73.3669 163.609M69.2275 175.777L80.1686 163.228M72.9032 178.982L89.3149 160.158M76.5788 182.186L95.3351 160.673M77.5879 189.377L97.1257 166.967" stroke="#ACBDE5" stroke-width="1.5" stroke-linecap="round" stroke-linejoin="round"/>
<path opacity="0.3" d="M338.5 77L340.985 93.0145L357 95.5L340.985 97.9855L338.5 114L336.015 97.9855L320 95.5L336.015 93.0145L338.5 77Z" fill="#CCD8F3"/>
<path opacity="0.3" d="M217.873 516.892L194.954 515.5L186.68 536.919L188.072 514L166.653 505.727L189.572 507.119L197.845 485.7L196.454 508.619L217.873 516.892Z" fill="#CCD8F3"/>
<path opacity="0.3" d="M155.91 145.493L153.427 155.136L161.864 160.426L152.221 157.943L146.932 166.38L149.415 156.736L140.978 151.447L150.621 153.93L155.91 145.493Z" fill="#75564C"/>
<path opacity="0.3" d="M558.825 329.237L556.979 312.189L572.665 305.264L555.618 307.109L548.693 291.423L550.538 308.47L534.852 315.396L551.899 313.551L558.825 329.237Z" fill="#CCD8F3"/>
<path opacity="0.3" d="M35.421 439.626L38.985 421.884L56.9729 419.902L39.2306 416.338L37.2491 398.35L33.6852 416.093L15.6973 418.074L33.4396 421.638L35.421 439.626Z" fill="#CCD8F3"/>
<path opacity="0.3" d="M348.945 461H360.635M348.945 465.848H365.31M336 470.697H360.548M348.945 475.545H377M340.126 481H369.35" stroke="#75564C" stroke-width="1.5" stroke-linecap="round" stroke-linejoin="round"/>
<ellipse opacity="0.3" cx="188" cy="84.5" rx="24" ry="7.5" stroke="#82A0EA" stroke-width="2"/>
<ellipse opacity="0.3" cx="37.0202" cy="272.629" rx="24.1233" ry="9.19015" transform="rotate(28.1725 37.0202 272.629)" stroke="#82A0EA" stroke-width="2"/>
<ellipse opacity="0.3" cx="434.108" cy="388.448" rx="19.3586" ry="15.3068" transform="rotate(30 434.108 388.448)" stroke="#82A0EA" stroke-width="2"/>
<ellipse opacity="0.3" cx="522.731" cy="212.339" rx="19.3586" ry="12.1928" transform="rotate(-47.0212 522.731 212.339)" stroke="#82A0EA" stroke-width="2"/>
<path opacity="0.3" d="M415 252.739L415 240.764M421.788 252.739L421.788 235.975M428.576 266L428.576 240.853M435.364 252.739L435.364 224M443 261.773L443 231.837" stroke="#81A0EA" stroke-width="1.5" stroke-linecap="round" stroke-linejoin="round"/>
<path opacity="0.3" d="M104.896 377.606L94.3689 371.528M108.296 371.717L93.558 363.208M123.355 372.559L101.247 359.795M115.096 359.939L89.8305 345.352M126.864 357.899L100.545 342.704" stroke="#81A0EA" stroke-width="1.5" stroke-linecap="round" stroke-linejoin="round"/>
<rect opacity="0.3" x="186.895" y="95.4902" width="52.7346" height="39.2704" rx="6" transform="rotate(-43.3169 186.895 95.4902)" stroke="#82A0EA" stroke-width="2"/>
<rect opacity="0.3" x="499.898" y="195.941" width="38.2967" height="28.5188" rx="6" transform="rotate(-43.3169 499.898 195.941)" stroke="#82A0EA" stroke-width="2"/>
<rect opacity="0.3" x="15.3184" y="278.775" width="52.7346" height="39.2704" rx="6" transform="rotate(-43.3169 15.3184 278.775)" stroke="#82A0EA" stroke-width="2"/>
<rect opacity="0.3" x="390.656" y="362.697" width="47.3382" height="35.2519" rx="6" transform="rotate(-2.77068 390.656 362.697)" stroke="#82A0EA" stroke-width="2"/>
<defs>
<filter id="filter0_f_296_3" x="12" y="15" width="494" height="576" filterUnits="userSpaceOnUse" color-interpolation-filters="sRGB">
<feFlood flood-opacity="0" result="BackgroundImageFix"/>
<feBlend mode="normal" in="SourceGraphic" in2="BackgroundImageFix" result="shape"/>
<feGaussianBlur stdDeviation="54.5" result="effect1_foregroundBlur_296_3"/>
</filter>
<filter id="filter1_f_296_3" x="0" y="0" width="534" height="628" filterUnits="userSpaceOnUse" color-interpolation-filters="sRGB">
<feFlood flood-opacity="0" result="BackgroundImageFix"/>
<feBlend mode="normal" in="SourceGraphic" in2="BackgroundImageFix" result="shape"/>
<feGaussianBlur stdDeviation="54.5" result="effect1_foregroundBlur_296_3"/>
</filter>
</defs>
</svg>
