<svg width="745" height="528" viewBox="0 0 745 528" fill="none" xmlns="http://www.w3.org/2000/svg">
<path d="M296.512 81.0038L274 92.0336L278.83 95.2171L294.946 88.2859L288.491 101.584L291.711 103.707L308.895 96.5558L302.338 110.71L307.169 113.894L316.478 94.1624L310.359 90.1299L296.805 95.9779L301.986 84.6118L296.512 81.0038Z" stroke="#C6BAD4" stroke-width="1.5" stroke-linecap="round" stroke-linejoin="round"/>
<path d="M436.775 420.375L446.1 443.645L449.634 439.065L443.92 422.478L456.702 429.904L459.058 426.851L453.205 409.182L466.833 416.774L470.367 412.194L451.382 401.443L446.906 407.245L451.729 421.196L440.78 415.184L436.775 420.375Z" stroke="#C6BAD4" stroke-width="1.5" stroke-linecap="round" stroke-linejoin="round"/>
<g filter="url(#filter0_f_296_4)">
<rect x="636" y="419" width="483" height="310" rx="155" transform="rotate(-180 636 419)" fill="#E3E5EE"/>
</g>
<g filter="url(#filter1_f_296_4)">
<rect x="109" y="124" width="509" height="288" rx="144" fill="#CBBBDA"/>
</g>
<line x1="98.377" y1="94.6779" x2="671.678" y2="450.623" stroke="#C6BAD4" stroke-width="2" stroke-linecap="round"/>
<path opacity="0.3" d="M443.5 40L445.985 56.0145L462 58.5L445.985 60.9855L443.5 77L441.015 60.9855L425 58.5L441.015 56.0145L443.5 40Z" fill="#C8BAD9"/>
<path opacity="0.3" d="M328.802 469.776L305.883 468.384L297.61 489.803L299.002 466.884L277.583 458.611L300.502 460.002L308.775 438.583L307.383 461.502L328.802 469.776Z" fill="#C8BAD9"/>
<path opacity="0.3" d="M103.707 199.49L115.381 212.797L131.6 205.706L118.293 217.38L125.384 233.6L113.71 220.292L97.4906 227.383L110.798 215.71L103.707 199.49Z" fill="#C8BAD9"/>
<path opacity="0.3" d="M663.825 292.237L661.979 275.189L677.665 268.264L660.618 270.109L653.693 254.423L655.538 271.47L639.852 278.396L656.899 276.551L663.825 292.237Z" fill="#C8BAD9"/>
<path opacity="0.3" d="M140.421 402.625L143.985 384.883L161.973 382.901L144.231 379.337L142.249 361.349L138.685 379.092L120.697 381.073L138.44 384.637L140.421 402.625Z" fill="#CCD8F3"/>
<path d="M404.296 127.154L412.562 135.419M400.868 130.582L412.44 142.154M388.286 124.857L405.644 142.215M394.011 137.439L413.849 157.277M383.918 135.06L404.582 155.724" stroke="#C6BAD4" stroke-width="2" stroke-linecap="round"/>
<path d="M153.945 313H165.635M153.945 317.848H170.31M141 322.697H165.548M153.945 327.545H182M145.126 333H174.35" stroke="#C6BAD4" stroke-width="2" stroke-linecap="round"/>
<path d="M612.63 308H618.618M612.63 311.394H621.013M606 314.788H618.573M612.63 318.182H627M608.113 322H623.082" stroke="#C6BAD4" stroke-width="2" stroke-linecap="round"/>
<ellipse opacity="0.3" cx="539.108" cy="351.447" rx="19.3586" ry="15.3068" transform="rotate(30 539.108 351.447)" stroke="#82A0EA" stroke-width="2"/>
<path opacity="0.3" d="M520 215.739L520 203.764M526.788 215.739L526.788 198.975M533.576 229L533.576 203.853M540.364 215.739L540.364 187M548 224.773L548 194.837" stroke="#81A0EA" stroke-width="1.5" stroke-linecap="round" stroke-linejoin="round"/>
<path opacity="0.3" d="M209.896 340.605L199.369 334.527M213.296 334.716L198.558 326.207M228.355 335.558L206.247 322.794M220.096 322.938L194.831 308.351M231.864 320.898L205.545 305.703" stroke="#81A0EA" stroke-width="1.5" stroke-linecap="round" stroke-linejoin="round"/>
<rect opacity="0.3" x="495.656" y="325.697" width="47.3382" height="35.2519" rx="6" transform="rotate(-2.77068 495.656 325.697)" stroke="#82A0EA" stroke-width="2"/>
<path d="M209.295 411.291L553.5 78.5" stroke="#C6BAD4" stroke-width="2" stroke-linecap="round"/>
<path d="M647.615 186L656.939 209.27L660.473 204.69L654.76 188.103L667.541 195.529L669.898 192.476L664.045 174.807L677.672 182.399L681.206 177.819L662.222 167.068L657.746 172.87L662.569 186.821L651.62 180.809L647.615 186Z" stroke="#C6BAD4" stroke-width="1.5" stroke-linecap="round" stroke-linejoin="round"/>
<path d="M91.4596 281.241L83.4951 305.011L89.1541 303.809L95.5422 287.471L100.472 301.407L104.245 300.606L111.227 283.352L116.695 297.962L122.354 296.761L114.85 276.275L107.682 277.797L102.323 291.551L97.8732 279.879L91.4596 281.241Z" stroke="#C6BAD4" stroke-width="1.5" stroke-linecap="round" stroke-linejoin="round"/>
<defs>
<filter id="filter0_f_296_4" x="44" y="0" width="701" height="528" filterUnits="userSpaceOnUse" color-interpolation-filters="sRGB">
<feFlood flood-opacity="0" result="BackgroundImageFix"/>
<feBlend mode="normal" in="SourceGraphic" in2="BackgroundImageFix" result="shape"/>
<feGaussianBlur stdDeviation="54.5" result="effect1_foregroundBlur_296_4"/>
</filter>
<filter id="filter1_f_296_4" x="0" y="15" width="727" height="506" filterUnits="userSpaceOnUse" color-interpolation-filters="sRGB">
<feFlood flood-opacity="0" result="BackgroundImageFix"/>
<feBlend mode="normal" in="SourceGraphic" in2="BackgroundImageFix" result="shape"/>
<feGaussianBlur stdDeviation="54.5" result="effect1_foregroundBlur_296_4"/>
</filter>
</defs>
</svg>
