<svg width="707" height="571" viewBox="0 0 707 571" fill="none" xmlns="http://www.w3.org/2000/svg">
<path opacity="0.3" d="M611.148 154.293L611.148 143.459M615.27 154.293L615.27 139.125M619.391 166.291L619.391 143.539M623.512 154.293L623.512 128.291M628.148 162.467L628.148 135.382" stroke="#75564C" stroke-width="1.5" stroke-linecap="round" stroke-linejoin="round"/>
<g filter="url(#filter0_f_220_1468)">
<rect x="109.146" y="131.291" width="427" height="330" rx="165" fill="#D2CAAB"/>
</g>
<g opacity="0.3">
<path d="M132.011 125.935C122.606 128.429 99.9398 137.572 84.5106 154.184" stroke="#75564C" stroke-width="2"/>
<path d="M132.266 126.071C135.412 135.278 140.389 159.207 135.136 181.262" stroke="#75564C" stroke-width="2"/>
<path d="M135.509 181.543C125.738 179.302 101.893 170.63 84.6796 153.862" stroke="#75564C" stroke-width="2"/>
</g>
<g opacity="0.3">
<path d="M563.426 32.2655C560.644 41.3613 556.54 64.8983 562.372 86.2806" stroke="#75564C" stroke-width="2"/>
<path d="M563.668 32.1241C572.936 34.2633 595.372 42.4772 610.973 58.2191" stroke="#75564C" stroke-width="2"/>
<path d="M611.41 58.0535C604.509 65.01 585.005 80.3332 562.2 85.9736" stroke="#75564C" stroke-width="2"/>
</g>
<g filter="url(#filter1_f_220_1468)">
<rect x="152.146" y="109.291" width="427" height="330" rx="165" fill="#C39585"/>
</g>
<g opacity="0.3">
<path d="M344.902 378.116C338.593 381.022 323.771 390.226 314.953 403.798" stroke="#75564C" stroke-width="2"/>
<path d="M345.098 378.182C348.437 384.272 354.866 400.492 353.871 416.646" stroke="#75564C" stroke-width="2"/>
<path d="M354.171 416.797C347.025 416.417 329.194 413.236 315.035 403.55" stroke="#75564C" stroke-width="2"/>
</g>
<g opacity="0.3">
<path d="M319.599 129.664C322.374 134.882 330.912 147.027 342.869 153.859" stroke="#75564C" stroke-width="2"/>
<path d="M319.645 129.494C324.657 126.362 338.123 120.114 351.894 120.175" stroke="#75564C" stroke-width="2"/>
<path d="M352.01 119.915C352.034 126.003 350.198 141.305 342.656 153.803" stroke="#75564C" stroke-width="2"/>
</g>
<path opacity="0.3" d="M184.249 143.589L191.214 135.6M187.525 146.446L197.276 135.261M190.801 149.302L205.428 132.525M194.077 152.158L210.793 132.984M194.976 158.567L212.389 138.594" stroke="#75564C" stroke-width="1.5" stroke-linecap="round" stroke-linejoin="round"/>
<g opacity="0.3">
<path d="M542.537 362.39C545.016 368.553 553.113 383.143 565.664 392.203" stroke="#75564C" stroke-width="2"/>
<path d="M542.612 362.204C548.586 359.3 564.381 353.919 579.766 355.627" stroke="#75564C" stroke-width="2"/>
<path d="M579.921 355.35C579.224 362.158 575.349 379.042 565.433 392.113" stroke="#75564C" stroke-width="2"/>
</g>
<g opacity="0.3">
<path d="M297.666 14.6987C292.483 19.8488 281.165 34.2975 277.357 50.892" stroke="#75564C" stroke-width="2"/>
<path d="M297.883 14.6919C303.383 19.5026 315.595 33.2036 320.449 49.5228" stroke="#75564C" stroke-width="2"/>
<path d="M320.799 49.564C313.602 51.7709 294.836 55.0713 277.348 50.6178" stroke="#75564C" stroke-width="2"/>
</g>
<g opacity="0.3">
<path d="M659.689 207.226C662.464 212.445 671.002 224.589 682.959 231.421" stroke="#75564C" stroke-width="2"/>
<path d="M659.733 207.057C664.744 203.925 678.211 197.676 691.982 197.738" stroke="#75564C" stroke-width="2"/>
<path d="M692.096 197.477C692.12 203.566 690.284 218.867 682.742 231.365" stroke="#75564C" stroke-width="2"/>
</g>
<g opacity="0.3">
<path d="M144.999 423.181C151.112 427.184 167.592 435.263 184.615 435.55" stroke="#75564C" stroke-width="2"/>
<path d="M144.948 422.971C148.515 416.595 159.388 401.808 174.348 393.679" stroke="#75564C" stroke-width="2"/>
<path d="M174.316 393.328C177.966 399.911 185.083 417.586 184.35 435.617" stroke="#75564C" stroke-width="2"/>
</g>
<path opacity="0.3" d="M435.646 39.291L437.863 53.5742L452.146 55.791L437.863 58.0078L435.646 72.291L433.43 58.0078L419.146 55.791L433.43 53.5742L435.646 39.291Z" fill="#75564C"/>
<path opacity="0.3" d="M320.005 450.465L299.578 449.225L292.205 468.315L293.445 447.888L274.355 440.514L294.782 441.755L302.156 422.665L300.915 443.092L320.005 450.465Z" fill="#75564C"/>
<path opacity="0.3" d="M264.78 119.454L262.567 128.049L270.087 132.763L261.492 130.55L256.778 138.069L258.991 129.475L251.472 124.761L260.066 126.974L264.78 119.454Z" fill="#75564C"/>
<path opacity="0.3" d="M646.944 312.125L645.3 296.931L659.28 290.759L644.087 292.403L637.914 278.423L639.559 293.616L625.579 299.789L640.772 298.144L646.944 312.125Z" fill="#75564C"/>
<path opacity="0.3" d="M44.5459 295.486L47.7223 279.673L63.7542 277.907L47.9412 274.73L46.1752 258.698L42.9989 274.511L26.967 276.277L42.78 279.454L44.5459 295.486Z" fill="#75564C"/>
<path opacity="0.3" d="M436.829 400.291H447.378M436.829 404.655H451.597M425.146 409.018H447.3M436.829 413.382H462.146M428.87 418.291H455.243" stroke="#75564C" stroke-width="1.5" stroke-linecap="round" stroke-linejoin="round"/>
<defs>
<filter id="filter0_f_220_1468" x="0.146484" y="22.291" width="645" height="548" filterUnits="userSpaceOnUse" color-interpolation-filters="sRGB">
<feFlood flood-opacity="0" result="BackgroundImageFix"/>
<feBlend mode="normal" in="SourceGraphic" in2="BackgroundImageFix" result="shape"/>
<feGaussianBlur stdDeviation="54.5" result="effect1_foregroundBlur_220_1468"/>
</filter>
<filter id="filter1_f_220_1468" x="43.1465" y="0.291016" width="645" height="548" filterUnits="userSpaceOnUse" color-interpolation-filters="sRGB">
<feFlood flood-opacity="0" result="BackgroundImageFix"/>
<feBlend mode="normal" in="SourceGraphic" in2="BackgroundImageFix" result="shape"/>
<feGaussianBlur stdDeviation="54.5" result="effect1_foregroundBlur_220_1468"/>
</filter>
</defs>
</svg>
