<svg width="30" height="29" viewBox="0 0 30 29" fill="none" xmlns="http://www.w3.org/2000/svg">
<path d="M18.6491 28.9623H9.99571C9.85986 28.9487 9.7376 28.9351 9.60176 28.9216C8.73234 28.8265 7.84935 28.7857 6.99352 28.6091C3.86907 27.9571 1.81779 26.1231 0.961964 23.0123C0.540843 21.45 0.500091 19.8471 0.486506 18.2441C0.472922 15.7309 0.486506 13.2042 0.486506 10.6911C0.486506 9.27826 0.540845 7.87905 0.826121 6.49343C1.22007 4.48291 2.18458 2.83918 3.86906 1.63015C5.30903 0.597721 6.95276 0.14943 8.678 0.108677C11.7209 0.0271691 14.7639 0 17.8204 0C19.4506 0 21.0807 0 22.6973 0.258107C26.0663 0.815075 28.3349 2.93427 29.082 6.26249C29.3537 7.43076 29.3945 8.61262 29.4217 9.80806C29.4217 10.1748 29.4488 10.5416 29.476 10.9084V18.149C29.4624 18.4886 29.4352 18.8282 29.4217 19.1543C29.3945 20.3361 29.3537 21.5316 29.0685 22.6862C28.3077 25.7835 26.433 27.7669 23.3222 28.5276C22.1403 28.8129 20.9313 28.8672 19.7358 28.8944C19.3826 28.8944 19.0294 28.9216 18.6627 28.9487L18.6491 28.9623ZM26.7998 14.0329C26.7998 14.0329 26.827 14.0329 26.8406 14.0329C26.8406 12.9733 26.8678 11.9001 26.8406 10.8405C26.7862 9.56354 26.7591 8.27301 26.5689 7.00964C26.2429 4.95837 25.0474 3.58633 23.0097 3.05653C22.1811 2.83918 21.3252 2.68975 20.483 2.66258C18.4861 2.58107 16.4891 2.58107 14.4922 2.56748C13.0522 2.56748 11.6123 2.56748 10.1587 2.60824C9.09913 2.62182 8.05311 2.67616 7.02068 2.94785C5.32261 3.39614 4.15434 4.4014 3.59738 6.08589C3.17625 7.36284 3.06758 8.69413 3.06758 10.0254C3.04041 13.0819 3.04041 16.1385 3.06758 19.195C3.06758 20.1188 3.16267 21.0425 3.35285 21.9527C3.81473 24.2077 5.1596 25.6477 7.46898 26.0552C8.40631 26.2182 9.37082 26.3133 10.3353 26.3269C13.0794 26.3677 15.8235 26.3948 18.5676 26.3677C19.8309 26.3677 21.0943 26.2862 22.3441 26.096C24.5584 25.7699 26.0527 24.3707 26.501 22.2244C26.6776 21.3821 26.7862 20.5127 26.7998 19.6433C26.8406 17.7822 26.8134 15.9211 26.8134 14.0736L26.7998 14.0329Z" fill="#959595"/>
<path d="M14.966 7.03711C19.0686 7.03711 22.3832 10.3382 22.4104 14.4543C22.4375 18.5432 19.1229 21.8851 15.0068 21.8986C10.8906 21.9122 7.54883 18.5976 7.54883 14.4679C7.54883 10.3517 10.8499 7.03711 14.966 7.03711ZM14.9932 9.64535C12.317 9.64535 10.1707 11.7781 10.1571 14.4407C10.1571 17.1169 12.2899 19.2768 14.9524 19.2904C17.6422 19.2904 19.8021 17.1576 19.8021 14.4815C19.8021 11.8053 17.6693 9.65893 14.9932 9.64535Z" fill="#959595"/>
<path d="M22.3978 4.11621C23.6476 4.11621 24.6393 5.08072 24.6528 6.3305C24.6664 7.59386 23.6747 8.59912 22.425 8.61271C21.1888 8.61271 20.1699 7.62103 20.1699 6.39842C20.1699 5.13505 21.148 4.1298 22.3978 4.1298V4.11621Z" fill="#959595"/>
</svg>
