<svg width="29" height="26" viewBox="0 0 29 26" fill="none" xmlns="http://www.w3.org/2000/svg">
<path d="M0.0140517 9.4011C3.19284 11.3845 6.26294 13.2999 9.31947 15.2017C10.5828 15.9896 11.8598 16.7639 13.1096 17.579C13.8296 18.0545 14.468 18.0409 15.2016 17.579C19.3721 14.9572 23.5697 12.349 27.7538 9.74072C27.9032 9.64563 28.0662 9.56412 28.2836 9.42827C28.2836 9.69996 28.3107 9.90373 28.3107 10.1075C28.3107 14.3866 28.3107 18.6658 28.3107 22.9313C28.3107 24.7381 27.2919 25.7433 25.4715 25.7433C17.9321 25.7433 10.3927 25.7298 2.8668 25.7433C1.16873 25.7433 -0.0267153 24.5887 0.000453811 22.877C0.0547921 18.6386 0.0140517 14.3866 0.0140517 10.1347C0.0140517 9.90373 0.0140517 9.68638 0.0140517 9.36035V9.4011Z" fill="#959595"/>
<path d="M28.0541 9.26525H0.300781C0.477381 9.14298 0.599659 9.04789 0.72192 8.97997C5.08257 6.24947 9.4568 3.53256 13.8174 0.802056C14.0348 0.66621 14.2114 0.598287 14.4695 0.761302C18.8709 3.51897 23.2723 6.26306 27.6873 9.00714C27.7824 9.06148 27.8775 9.14298 28.0677 9.26525H28.0541Z" fill="#959595"/>
</svg>
