<svg width="31" height="25" viewBox="0 0 31 25" fill="none" xmlns="http://www.w3.org/2000/svg">
<path fill-rule="evenodd" clip-rule="evenodd" d="M2.54267 10.7636C10.5978 7.23497 15.9725 4.90993 18.653 3.78844C26.3271 0.574422 27.9191 0.0273534 28.9532 0C29.1845 0 29.688 0.0547068 30.0281 0.328241C30.3139 0.560744 30.3819 0.861632 30.4227 1.08046C30.4636 1.29929 30.5044 1.79165 30.4636 2.17459C30.0418 6.56481 28.2457 17.219 27.334 22.1426C26.953 24.2214 26.1775 24.9189 25.4427 24.9873C23.8371 25.1378 22.6261 23.9205 21.0614 22.8948C18.6258 21.2946 17.2515 20.2962 14.8975 18.7371C12.1762 16.9317 13.9315 15.9333 15.4962 14.3195C15.9044 13.8955 22.9663 7.42644 23.1024 6.85202C23.116 6.78364 23.1296 6.51011 22.9799 6.35966C22.8302 6.20922 22.5853 6.26392 22.4084 6.30495C22.1635 6.35966 18.2856 8.94456 10.7611 14.046C9.65896 14.8119 8.66568 15.1811 7.76763 15.1538C6.78795 15.1264 4.88302 14.593 3.46793 14.128C1.73988 13.5673 0.365603 13.2664 0.488063 12.309C0.556097 11.803 1.23643 11.2969 2.54267 10.7772V10.7636Z" fill="#959595"/>
</svg>
