<svg width="32" height="31" viewBox="0 0 32 31" fill="none" xmlns="http://www.w3.org/2000/svg">
<path d="M15.179 0C15.831 0 16.4695 0 17.1216 0C17.4884 0.0407537 17.8551 0.0815075 18.2219 0.135846C21.6996 0.665644 24.7018 2.11919 27.1334 4.70026C29.2934 6.98247 30.6926 9.64505 31.2224 12.7423C31.3175 13.2993 31.3718 13.8563 31.4533 14.4132V16.3558C31.4397 16.4373 31.4125 16.5324 31.399 16.6139C31.3039 17.9588 31.0186 19.2629 30.5703 20.5399C27.4187 29.2883 17.1352 33.2958 8.88932 29.0031C8.75347 28.9351 8.53612 28.908 8.38669 28.9487C6.00939 29.56 3.63209 30.1849 1.25479 30.8098C1.01027 30.8777 0.75216 30.9321 0.480469 31C0.521222 30.8642 0.548392 30.7555 0.575561 30.6604C1.25479 28.2016 1.93402 25.7428 2.59966 23.284C2.64042 23.1481 2.61325 22.9579 2.54532 22.8357C0.806499 19.6433 0.235946 16.2743 0.820083 12.7152C1.90685 6.15381 7.15049 1.35846 13.4266 0.244522C14.0107 0.135846 14.5948 0.0815075 15.1926 0H15.179ZM4.20264 27.2778C4.35207 27.2507 4.42 27.2235 4.5015 27.2099C5.9143 26.8431 7.32709 26.4763 8.73989 26.1096C8.94366 26.0552 9.10667 26.0688 9.29686 26.1911C12.136 27.8891 15.179 28.4869 18.4393 27.862C25.4217 26.5307 29.9318 19.9422 28.6549 12.9597C27.4594 6.43909 21.1698 1.82033 14.5813 2.62182C10.9406 3.07011 7.97915 4.72743 5.79204 7.67529C3.67284 10.528 2.8306 13.7476 3.3604 17.2932C3.63209 19.1271 4.31132 20.798 5.33016 22.3466C5.45242 22.5232 5.46601 22.6727 5.41167 22.8764C5.16715 23.7051 4.94979 24.5473 4.71886 25.376C4.54226 25.9873 4.37924 26.6122 4.20264 27.2778Z" fill="#959595"/>
<path d="M20.1642 22.6591C19.0775 22.6999 18.1809 22.2923 17.2571 21.9799C14.6489 21.0833 12.6519 19.3852 10.9267 17.2932C10.098 16.288 9.28297 15.2827 8.73959 14.0873C8.16904 12.8239 7.95169 11.5334 8.54941 10.2292C8.80751 9.67226 9.20147 9.16963 9.56825 8.68059C9.77202 8.39531 10.1116 8.25947 10.4648 8.24588C10.8316 8.2323 11.1984 8.19155 11.5516 8.27305C11.7554 8.31381 11.9727 8.51757 12.0814 8.70776C12.2852 9.06096 12.421 9.45491 12.584 9.83528C12.8557 10.4602 13.1002 11.0986 13.3855 11.7235C13.5214 12.036 13.5214 12.3348 13.3176 12.6065C13.0595 12.9597 12.815 13.3129 12.5297 13.639C12.095 14.1552 12.0814 14.2095 12.421 14.7665C13.6572 16.777 15.3417 18.2441 17.5288 19.1271C17.9907 19.3173 18.1537 19.2766 18.4797 18.8962C18.8465 18.4479 19.2269 17.9996 19.5801 17.5241C19.7703 17.266 20.0012 17.1981 20.2865 17.2796C20.3952 17.3068 20.5038 17.3475 20.5989 17.3883C21.5634 17.8094 22.5143 18.2441 23.4789 18.6517C23.7641 18.7739 23.9 18.9777 23.8864 19.2901C23.8592 20.4448 23.4653 21.4093 22.4057 22.0206C21.6857 22.4418 20.9385 22.727 20.1642 22.6727V22.6591Z" fill="#959595"/>
</svg>
