<svg width="122" height="30" viewBox="0 0 122 30" fill="none" xmlns="http://www.w3.org/2000/svg">
<g clip-path="url(#clip0_140_157)">
<path d="M22.1205 17.4002V23.686C22.1205 24.5218 21.4108 25.2052 20.5295 25.2052H4.14612C3.45411 25.2052 2.79168 24.9398 2.30077 24.4766L0 22.2797H3.32399L4.03966 22.9631H19.7665V18.1344H14.3783C12.3851 18.1344 11.3856 15.8302 12.7932 14.4861L17.0399 10.4311H5.02148L2.66747 8.18335H19.4708C19.9854 8.18335 20.4053 8.58433 20.4053 9.07567V9.78727C20.4053 10.1995 20.2338 10.5892 19.9262 10.8829L14.6504 15.8867H20.5295C21.4049 15.8867 22.1205 16.5644 22.1205 17.4059V17.4002Z" fill="black"/>
<path d="M47.7122 19.8229V22.0706H35.3625C34.7947 22.0706 34.2328 21.952 33.7242 21.7148L26.9697 18.6369L28.1467 16.6885L35.1318 19.8229H47.7122Z" fill="black"/>
<path d="M70.355 9.6687V25.1713H68.001V10.4255H54.5513V25.1713H52.1973V9.6687C52.1973 8.84415 52.8952 8.17773 53.7587 8.17773H68.7936C69.6571 8.17773 70.355 8.84415 70.355 9.6687Z" fill="black"/>
<path d="M120.965 23.0704H118.386L115.86 9.40326C115.73 8.69167 115.08 8.17773 114.329 8.17773L104.853 8.20597C104.102 8.20597 103.463 8.72555 103.333 9.42585L101.009 21.9296H103.422L105.545 10.4198H113.672L116.008 23.0648H103.215L103.422 21.9296H101.003L100.37 25.3125H119.297L117.144 28.8762L119.184 30L121.775 25.7192C121.935 25.4537 122.017 25.1544 122.017 24.8494V24.0531C122.017 23.5053 121.556 23.0648 120.982 23.0648L120.965 23.0704Z" fill="black"/>
<path d="M48.1975 25.1714H45.4827L36.8356 10.8717L28.1885 25.1714H25.4678L35.5166 8.55618C36.1022 7.58479 37.569 7.58479 38.1545 8.55618L48.2034 25.1714H48.1975Z" fill="black"/>
<path d="M96.0295 19.8229V22.0706H83.6799C83.1121 22.0706 82.5502 21.952 82.0416 21.7148L75.2871 18.6369L76.4641 16.6885L83.4492 19.8229H96.0295Z" fill="black"/>
<path d="M96.5149 25.1714H93.8001L85.153 10.8717L76.5059 25.1714H73.7852L83.834 8.55618C84.4196 7.58479 85.8864 7.58479 86.4719 8.55618L96.5208 25.1714H96.5149Z" fill="black"/>
<path d="M17.8563 3.84036L4.27051 1.92018L17.8563 0V3.84036Z" fill="black"/>
</g>
<defs>
<clipPath id="clip0_140_157">
<rect width="122" height="30" fill="white"/>
</clipPath>
</defs>
</svg>
